<svg width="1080" height="271" viewBox="0 0 1080 271" fill="none" xmlns="http://www.w3.org/2000/svg">
<rect width="1080" height="271" fill="#1E1E1E"/>
<path d="M448.514 168.211L446.664 168.971C446.174 169.173 445.623 169.171 445.134 168.967C444.644 168.763 444.256 168.373 444.054 167.882L441.012 160.483C440.811 159.992 440.812 159.441 441.016 158.952C441.221 158.462 441.611 158.074 442.102 157.872L445.052 156.66M453.201 153.31L455.05 152.55C455.541 152.348 456.092 152.349 456.581 152.554C457.071 152.758 457.459 153.148 457.661 153.639L460.702 161.038C460.904 161.529 460.902 162.079 460.698 162.569C460.494 163.058 460.103 163.447 459.613 163.648L456.662 164.861M463.261 156.743L462.501 154.893M449.501 154.831L448.083 161.901L453.632 159.62L452.214 166.69M859.992 92.7601C860.974 92.3568 861.755 91.5803 862.163 90.6013C862.572 89.6223 862.575 88.5211 862.172 87.5399L859.891 81.9902L846.017 87.6919L848.678 94.1665C848.98 94.9024 848.978 95.7283 848.671 96.4626C848.365 97.1968 847.779 97.7792 847.043 98.0816M859.992 92.7601L847.043 98.0816M859.992 92.7601C860.974 92.3568 862.075 92.3599 863.054 92.7686C864.033 93.1773 864.809 93.9582 865.213 94.9394L867.493 100.489L853.619 106.191L850.958 99.7161C850.656 98.9802 850.074 98.3945 849.339 98.088C848.605 97.7815 847.779 97.7792 847.043 98.0816M721.302 103.817L728.237 105.534L733.182 100.38M730.219 112.386L728.235 105.528M263.506 85.3225L262.382 86.9769M260.197 83.0748L259.073 84.7292M255.881 84.9789L263.326 90.036M461.093 96.0543L462.367 99.7078L465.227 100.077M688.006 91.0099L689.585 94.0938L693.045 94.2659M682.369 99.7341L684.247 96.8279L682.667 93.744M692.747 100.256L689.286 100.084L687.409 102.99M684.642 91.0195L687.703 97.0056L694.419 97.3361M684.06 102.644L687.707 97M759.909 174.183L760.701 177.076M765.695 172.598L766.488 175.492M764.926 192.508L765.719 195.402M770.713 190.924L771.506 193.817M772.631 178.994L775.524 178.201M773.951 183.816L776.845 183.024M754.305 184.012L757.199 183.219M755.626 188.834L758.519 188.042M729.071 173.521L729.711 177.469C729.796 177.993 729.67 178.529 729.359 178.959C729.049 179.389 728.581 179.679 728.057 179.764L714.238 182.004C713.714 182.089 713.178 181.963 712.748 181.652C712.318 181.342 712.028 180.874 711.943 180.35L711.303 176.402M714.451 170.826L720.187 174.961M720.187 174.961L724.322 169.226M720.187 174.961L718.267 163.116M275.343 148.419L264.698 165.351M283.808 153.741L273.164 170.673M265.787 154.224L282.719 164.868M268.448 149.991L272.681 152.652M263.126 158.457L267.359 161.118M275.825 166.44L280.058 169.101M281.147 157.974L285.38 160.635M551.483 109.562C551.483 109.562 552.259 108.38 555.196 107.77C558.134 107.161 560.498 108.714 563.436 108.105C566.373 107.496 567.15 106.313 567.15 106.313L564.713 94.5632C564.713 94.5632 563.937 95.7454 561 96.3545C558.062 96.9636 555.698 95.4113 552.76 96.0203C549.823 96.6294 549.047 97.8116 549.047 97.8116L551.483 109.562ZM551.483 109.562L552.904 116.416M347.941 95.0024C342.75 94.4512 344.297 90.7627 342.646 89.5279M353.235 100.477L354.732 96.9082C354.951 96.483 355.077 96.0161 355.102 95.5384C355.127 95.0607 355.049 94.5833 354.875 94.1378C357.906 95.0298 361.409 95.2092 363.522 90.1743C364.062 88.8868 364.086 87.4409 363.589 86.136C364.482 85.186 364.975 83.9285 364.965 82.6248C364.965 82.6248 364.012 81.8455 360.787 82.4768C358.914 81.0173 356.686 80.0826 354.332 79.7687C352.522 77.0251 351.299 76.8913 351.299 76.8913C350.362 77.7976 349.81 79.0302 349.757 80.3329C348.469 80.8971 347.449 81.9384 346.912 83.2383C344.815 88.2363 347.398 90.6103 350.142 92.1847C349.707 92.3709 349.316 92.6466 348.995 92.9938C348.674 93.3411 348.429 93.7521 348.277 94.2001L346.78 97.7688M813.999 119.092L794.627 114.121M813.999 119.092L812.508 124.903C812.376 125.417 812.046 125.858 811.589 126.128C811.133 126.398 810.587 126.475 810.074 126.344L794.576 122.367C794.062 122.235 793.622 121.904 793.352 121.448C793.081 120.991 793.004 120.446 793.136 119.932L794.627 114.121M813.999 119.092L812.37 111.56C812.293 111.197 812.115 110.861 811.858 110.593C811.6 110.324 811.273 110.133 810.912 110.04L801.691 107.674C801.331 107.582 800.952 107.592 800.597 107.703C800.242 107.815 799.925 108.023 799.681 108.304L794.627 114.121M797.507 118.989L797.517 118.992M801.382 119.983L801.391 119.986M856.411 174.853L856.421 174.85M860.56 186.113L860.569 186.11M894.052 138.395L888.009 150.498C887.396 151.651 886.717 152.329 885.766 152.464C885.291 152.531 884.694 152.422 884.07 152.122C878.357 149.44 865.44 143.803 860.161 141.448C859.537 141.148 858.859 140.469 858.738 139.613C858.671 139.138 858.794 138.636 859.188 137.998L865.025 128.543C860.567 131.986 856.531 134.981 854.765 136.2L854.235 136.566L857.391 152.699C857.553 153.84 856.927 154.898 855.786 155.059L836.924 158.796C835.878 158.944 834.82 158.318 834.563 157.191L819.578 80.0986L819.551 79.9085C819.416 78.9579 820.151 77.9814 821.088 77.7518L839.964 74.1101L840.154 74.0832C841.199 73.9351 842.081 74.683 842.324 75.7151L850.134 115.816C853.6 112.223 868.227 97.7418 872.409 97.1498C873.17 97.0421 874.079 97.3012 875.014 98.4293L884.72 110.144C885.181 110.661 885.452 111.204 885.533 111.775C885.667 112.725 885.218 113.661 884.158 114.393C881.943 115.87 876.942 119.584 871.683 123.528C878.633 124.677 893.95 132.883 894.448 136.4C894.529 136.97 894.42 137.568 894.052 138.395ZM823.567 136.863L823.065 149.314C823.076 150.528 822.388 151.779 821.298 152.153C820.935 152.277 820.419 152.251 819.962 152.103C817.86 151.301 814.339 151.392 811.161 152.481C808.8 153.29 801.086 156.543 804.479 166.442C806.564 172.526 812.293 175.028 818.196 173.005C822.101 171.667 826.05 168.385 829.039 162.895C829.397 162.163 830.059 161.429 830.877 161.149C831.512 160.931 832.363 161.045 833.372 161.917C836.065 164.445 837.715 165.706 840.196 168.205C840.655 168.656 841.054 169.229 841.272 169.865C841.646 170.955 841.534 172.11 840.818 173.573C835.859 183.087 828.199 189.163 820.026 191.964C804.95 197.131 787.99 191.172 782.512 175.189C775.54 154.846 788.963 141.011 803.947 135.875C814.027 132.42 822.662 133.926 823.44 136.196C823.502 136.378 823.596 136.65 823.567 136.863ZM783.723 138.088C783.723 156.808 764.715 167.272 751.083 167.272C735.435 167.272 721.707 155.944 721.707 139.048C721.707 119.272 736.491 109 753.387 109C774.603 109 783.723 125.608 783.723 138.088ZM753.387 148.936C760.203 148.936 763.275 143.368 763.275 137.896C763.275 136.072 762.891 126.76 753.099 126.76C745.035 126.76 742.731 133.576 742.731 137.896C742.731 144.52 747.915 148.936 753.387 148.936ZM701.391 177.024L682.579 172.731C681.549 172.496 680.899 171.461 681.134 170.432L698.584 93.9655C698.84 92.8423 699.875 92.1922 700.904 92.4271L719.717 96.7201C720.746 96.9551 721.396 97.9896 721.14 99.1128L703.69 175.579C703.455 176.609 702.421 177.259 701.391 177.024ZM622.813 156.16L608.605 89.2071L608.575 89.0175C608.394 87.8797 609.192 86.7813 610.425 86.5859L621.318 84.1789C626.377 81.1415 633.183 78.702 640.295 77.5749C662.766 74.0133 674.186 84.7418 676.095 96.7835C677.102 103.136 674.894 108.832 671.418 113.271C674.419 115.031 676.93 116.771 678.893 119.959C681.091 123.401 682.406 126.789 682.902 129.918C685.457 146.037 667.592 157.811 648.628 160.817C643.319 161.658 625.362 163.046 622.813 156.16ZM635.006 97.5612L638.504 114.114C643.12 113.188 654.423 110.91 653.131 102.756C652.44 98.3944 648.38 94.8583 640.226 96.1507C638.424 96.4363 636.653 96.9114 635.006 97.5612ZM641.592 128.69L644.68 143.266C646.038 143.246 647.285 143.145 648.518 142.95C655.534 141.838 660.174 137.992 659.422 133.251C658.641 128.321 654.158 126.407 646.572 127.609C644.771 127.895 643.079 128.26 641.592 128.69ZM523.807 187.222L511.19 179.256C509.888 178.413 509.377 177.529 509.563 176.587C509.693 175.928 510.105 175.324 510.706 174.758L529.819 155.727C529.592 155.388 529.497 154.88 529.325 154.259L519.564 110.946C519.412 110.231 519.335 109.629 519.428 109.158C519.688 107.84 520.985 107.215 522.472 107.116L538.32 105.641C538.716 105.621 539.111 105.601 539.488 105.675C541.183 106.01 542.166 107.475 542.51 109.206L548.725 136.752C555.934 129.465 562.955 122.14 569 115.797C569.75 114.967 570.521 114.531 571.557 114.736C572.122 114.847 572.933 115.202 573.763 115.953L586.368 125.972C587.387 126.759 587.822 127.53 587.655 128.378C587.376 129.791 576.413 147.688 528.664 186.908C527.518 187.758 526.559 188.156 525.428 187.933C524.958 187.841 524.411 187.635 523.807 187.222ZM514.971 109.296L510.459 120.912C510.075 122.064 509.019 123.024 507.867 123.024C507.483 123.024 507.003 122.832 506.619 122.544C504.891 121.104 501.531 120.048 498.171 120.048C495.675 120.048 487.323 120.624 487.323 131.088C487.323 137.52 491.931 141.744 498.171 141.744C502.299 141.744 507.099 139.92 511.707 135.696C512.283 135.12 513.147 134.64 514.011 134.64C514.683 134.64 515.451 135.024 516.123 136.176C517.851 139.44 519.003 141.168 520.539 144.336C520.827 144.912 521.019 145.584 521.019 146.256C521.019 147.408 520.539 148.464 519.387 149.616C511.611 157.008 502.395 160.272 493.755 160.272C477.819 160.272 463.707 149.136 463.707 132.24C463.707 110.736 480.891 102 496.731 102C507.387 102 515.067 106.224 515.067 108.624C515.067 108.816 515.067 109.104 514.971 109.296ZM453.997 116.774L454.326 119.925C454.883 125.272 456.572 129.439 460.866 132.659C461.488 133.077 462.543 133.932 462.652 134.982C462.712 135.555 462.485 136.158 461.867 136.705C461.886 136.896 453.141 144.661 453.141 144.661C452.265 145.524 451.34 145.91 450.481 146C448.762 146.179 432.958 142.712 431.185 125.716L430.847 122.469C429.802 112.444 424.494 108.75 417.484 109.095L419.284 143.944C419.383 144.899 418.614 145.848 417.659 145.948L417.468 145.968L398.272 147.004C397.116 147.028 396.263 146.248 396.143 145.102L393.544 95.1828C393.53 94.1226 394.3 93.1736 395.255 93.0741L395.445 93.0541L406.199 92.512C409.843 91.3598 413.336 90.6095 416.774 90.2511C436.157 88.2301 452.096 98.5367 453.997 116.774ZM370.916 164.368L353.613 156.903C348.79 156.67 344.29 155.838 340.324 154.385C327.794 149.794 320.636 139.196 325.968 122.133C327.844 116.175 331.76 104.931 333.783 99.1294C335.138 95.4337 336.664 95.175 337.779 95.4812C337.935 95.334 352.27 99.462 353.802 100.024C355.605 100.684 355.996 101.85 355.689 102.964C354.017 109.202 352.414 114.136 349.024 125.06C346.544 132.944 348.257 136.639 352.043 138.027C353.846 138.687 356.241 138.849 358.89 138.593L371.875 108.18C372.362 107.131 373.527 106.74 374.519 107.104L392.093 114.668C393.175 115.064 393.566 116.23 393.169 117.312L373.56 163.292C373.074 164.341 371.908 164.732 370.916 164.368ZM322.723 114.088C322.723 132.808 303.715 143.272 290.083 143.272C274.435 143.272 260.707 131.944 260.707 115.048C260.707 95.272 275.491 85 292.387 85C313.603 85 322.723 101.608 322.723 114.088ZM292.387 124.936C299.203 124.936 302.275 119.368 302.275 113.896C302.275 112.072 301.891 102.76 292.099 102.76C284.035 102.76 281.731 109.576 281.731 113.896C281.731 120.52 286.915 124.936 292.387 124.936ZM202.007 163.601L184.087 97.5448L184.046 97.3571C183.803 96.2312 184.538 95.0899 185.758 94.8261L196.5 91.8154C201.382 88.5006 208.041 85.6853 215.079 84.1633C237.317 79.3539 249.317 89.4288 251.895 101.345C253.254 107.632 251.368 113.442 248.145 118.068C251.239 119.658 253.843 121.255 255.981 124.329C258.368 127.643 259.869 130.953 260.539 134.049C263.989 150 246.808 162.752 228.042 166.811C222.787 167.947 204.937 170.334 202.007 163.601ZM210.913 104.413L215.329 120.745C219.886 119.563 231.044 116.659 229.299 108.589C228.366 104.273 224.115 100.969 216.046 102.714C214.263 103.1 212.521 103.673 210.913 104.413ZM219.225 135.126L223.121 149.508C224.475 149.411 225.715 149.241 226.935 148.978C233.879 147.476 238.296 143.378 237.282 138.686C236.226 133.807 231.644 132.146 224.137 133.769C222.355 134.155 220.686 134.614 219.225 135.126ZM735.146 106.477L733.571 101.034C733.502 100.795 733.371 100.579 733.192 100.407C733.012 100.235 732.791 100.113 732.55 100.054L726.999 98.7103C726.758 98.6507 726.505 98.6557 726.266 98.7248C726.027 98.7939 725.811 98.9247 725.639 99.104L721.663 103.204C721.491 103.383 721.369 103.604 721.309 103.845C721.25 104.087 721.255 104.339 721.323 104.578L722.898 110.021C722.968 110.26 723.099 110.476 723.278 110.648C723.457 110.82 723.678 110.942 723.919 111.002L729.47 112.345C729.711 112.405 729.964 112.4 730.203 112.33C730.442 112.261 730.658 112.131 730.831 111.951L734.806 107.851C734.978 107.672 735.1 107.451 735.16 107.21C735.22 106.969 735.215 106.716 735.146 106.477ZM258.394 83.0592L264.185 86.9925C264.641 87.3029 264.76 87.9248 264.45 88.3816L260.517 94.172C260.206 94.6289 259.584 94.7477 259.127 94.4373L253.337 90.504C252.88 90.1936 252.761 89.5717 253.072 89.1149L257.005 83.3245C257.315 82.8676 257.937 82.7488 258.394 83.0592ZM468.456 97.5854C469.628 100.948 467.852 104.625 464.489 105.797C461.126 106.969 457.449 105.193 456.277 101.83C455.105 98.4673 456.881 94.7907 460.244 93.6185C463.607 92.4463 467.284 94.2224 468.456 97.5854ZM691.3 102.496L694.194 98.0161C694.321 97.8196 694.393 97.5932 694.405 97.3597C694.417 97.1262 694.366 96.8937 694.26 96.6856L691.787 91.9133C691.68 91.705 691.521 91.5285 691.324 91.4015C691.128 91.2745 690.901 91.2015 690.667 91.1898L685.3 90.8972C685.067 90.8855 684.834 90.9354 684.626 91.042C684.418 91.1485 684.242 91.3079 684.115 91.5041L681.22 95.9839C681.094 96.1804 681.021 96.4068 681.009 96.6403C680.998 96.8738 681.048 97.1063 681.154 97.3144L683.627 102.087C683.734 102.295 683.893 102.472 684.09 102.599C684.287 102.726 684.513 102.799 684.747 102.81L690.114 103.103C690.347 103.115 690.58 103.065 690.788 102.958C690.996 102.852 691.173 102.692 691.3 102.496ZM757.807 177.869L769.381 174.699C770.447 174.408 771.547 175.035 771.839 176.1L775.008 187.674C775.299 188.74 774.672 189.84 773.607 190.131L762.033 193.301C760.968 193.592 759.867 192.965 759.576 191.9L756.407 180.326C756.115 179.26 756.742 178.16 757.807 177.869ZM762.021 181.899L767.808 180.314L769.393 186.101L763.606 187.686L762.021 181.899ZM272.955 146.918L286.196 155.242C287.215 155.883 287.522 157.229 286.881 158.248L278.557 171.489C277.916 172.508 276.57 172.815 275.551 172.174L262.31 163.85C261.291 163.209 260.984 161.863 261.625 160.844L269.949 147.603C270.59 146.584 271.936 146.277 272.955 146.918ZM764.207 142.667V133.333C764.207 132.924 764.099 132.522 763.894 132.168C763.689 131.814 763.395 131.52 763.04 131.315L754.874 126.648C754.519 126.444 754.117 126.336 753.707 126.336C753.298 126.336 752.895 126.444 752.54 126.648L744.374 131.315C744.019 131.52 743.725 131.814 743.52 132.168C743.316 132.522 743.208 132.924 743.207 133.333V142.667C743.208 143.076 743.316 143.478 743.52 143.832C743.725 144.186 744.019 144.48 744.374 144.685L752.54 149.352C752.895 149.556 753.298 149.664 753.707 149.664C754.117 149.664 754.519 149.556 754.874 149.352L763.04 144.685C763.395 144.48 763.689 144.186 763.894 143.832C764.099 143.478 764.207 143.076 764.207 142.667ZM508.421 182.998C507.609 184.503 506.385 185.745 504.893 186.579C503.401 187.413 501.702 187.805 499.995 187.709C498.289 187.613 496.645 187.033 495.255 186.037C493.866 185.041 492.79 183.669 492.151 182.083C491.513 180.498 491.34 178.763 491.652 177.082C491.963 175.401 492.748 173.844 493.912 172.592C495.077 171.341 496.573 170.447 498.227 170.015C499.881 169.583 501.624 169.632 503.252 170.154C501.806 171.004 500.714 172.344 500.173 173.931C499.633 175.518 499.68 177.247 500.306 178.802C500.932 180.357 502.095 181.636 503.584 182.406C505.073 183.177 506.79 183.387 508.421 182.998ZM853.152 171.791L868.165 166.26C869.202 165.878 870.352 166.408 870.733 167.445L872.116 171.198C872.498 172.235 871.967 173.384 870.931 173.766L855.918 179.298C854.881 179.68 853.731 179.149 853.35 178.113L851.967 174.359C851.585 173.323 852.115 172.173 853.152 171.791ZM857.301 183.051L872.314 177.52C873.35 177.138 874.5 177.668 874.882 178.705L876.265 182.458C876.647 183.495 876.116 184.644 875.08 185.026L860.066 190.558C859.03 190.94 857.88 190.409 857.498 189.373L856.115 185.619C855.733 184.583 856.264 183.433 857.301 183.051ZM391.825 158.09C391.255 157.906 390.943 157.297 391.127 156.726L392.236 153.289C392.42 152.718 393.029 152.406 393.599 152.59C394.17 152.774 394.482 153.383 394.298 153.954L393.189 157.391C393.005 157.962 392.396 158.274 391.825 158.09ZM395.95 159.42L394.919 159.088L395.252 158.057C395.436 157.486 396.045 157.174 396.615 157.358C397.186 157.542 397.498 158.151 397.314 158.722C397.13 159.292 396.521 159.604 395.95 159.42ZM387.501 159.731C388.072 159.915 388.384 160.524 388.2 161.095L387.091 164.532C386.907 165.103 386.298 165.415 385.727 165.231C385.157 165.047 384.845 164.437 385.029 163.867L386.137 160.429C386.321 159.859 386.931 159.547 387.501 159.731ZM383.377 158.4L384.408 158.733L384.075 159.764C383.891 160.335 383.282 160.647 382.711 160.463C382.141 160.279 381.829 159.67 382.013 159.099C382.197 158.528 382.806 158.216 383.377 158.4ZM390.484 161.073C390.668 160.502 391.277 160.19 391.848 160.374L395.285 161.483C395.856 161.667 396.168 162.276 395.983 162.847C395.799 163.417 395.19 163.729 394.62 163.545L391.182 162.436C390.612 162.252 390.3 161.643 390.484 161.073ZM390.517 164.499L389.486 164.166L389.153 165.197C388.969 165.768 389.281 166.377 389.852 166.561C390.422 166.745 391.032 166.433 391.216 165.862C391.4 165.292 391.088 164.683 390.517 164.499ZM388.843 156.748C389.027 156.178 388.715 155.569 388.144 155.384L384.707 154.276C384.136 154.092 383.527 154.404 383.343 154.974C383.159 155.545 383.471 156.154 384.042 156.338L387.479 157.447C388.05 157.631 388.659 157.319 388.843 156.748ZM388.81 153.322L389.841 153.655L390.173 152.624C390.357 152.053 390.045 151.444 389.475 151.26C388.904 151.076 388.295 151.388 388.111 151.958C387.927 152.529 388.239 153.138 388.81 153.322Z" stroke="#530179" stroke-width="10" stroke-linecap="round" stroke-linejoin="round"/>
<path d="M894.759 138.395L888.716 150.498C888.103 151.651 887.424 152.329 886.473 152.464C885.998 152.531 885.401 152.422 884.777 152.122C879.064 149.44 866.147 143.803 860.868 141.448C860.244 141.148 859.566 140.469 859.445 139.613C859.378 139.138 859.501 138.636 859.895 137.998L865.732 128.543C861.274 131.986 857.238 134.981 855.472 136.2L854.942 136.566L858.098 152.699C858.26 153.84 857.634 154.898 856.493 155.059L837.631 158.796C836.585 158.944 835.527 158.318 835.27 157.191L820.285 80.0986L820.258 79.9085C820.123 78.9579 820.858 77.9814 821.795 77.7518L840.671 74.1101L840.861 74.0832C841.906 73.9351 842.788 74.683 843.031 75.7151L850.841 115.816C854.307 112.223 868.934 97.7418 873.116 97.1498C873.877 97.0421 874.786 97.3012 875.721 98.4293L885.427 110.144C885.888 110.661 886.159 111.204 886.24 111.775C886.374 112.725 885.925 113.661 884.865 114.393C882.65 115.87 877.65 119.584 872.39 123.528C879.34 124.677 894.658 132.883 895.155 136.4C895.236 136.97 895.127 137.568 894.759 138.395Z" fill="#0084FF"/>
<path d="M824.274 136.863L823.772 149.314C823.783 150.528 823.095 151.779 822.005 152.153C821.642 152.277 821.126 152.251 820.669 152.103C818.567 151.301 815.047 151.392 811.868 152.481C809.507 153.29 801.793 156.543 805.186 166.442C807.271 172.526 813 175.028 818.903 173.005C822.808 171.667 826.757 168.385 829.746 162.895C830.105 162.163 830.766 161.429 831.584 161.149C832.219 160.931 833.07 161.045 834.08 161.917C836.772 164.445 838.423 165.706 840.903 168.205C841.362 168.656 841.761 169.229 841.979 169.865C842.353 170.955 842.241 172.11 841.525 173.573C836.566 183.087 828.906 189.163 820.733 191.964C805.658 197.131 788.697 191.172 783.219 175.189C776.247 154.846 789.67 141.011 804.654 135.875C814.734 132.42 823.369 133.926 824.147 136.196C824.21 136.378 824.303 136.65 824.274 136.863Z" fill="#0084FF"/>
<path d="M784.43 138.088C784.43 156.808 765.422 167.272 751.79 167.272C736.142 167.272 722.414 155.944 722.414 139.048C722.414 119.272 737.198 109 754.094 109C775.31 109 784.43 125.608 784.43 138.088ZM754.094 148.936C760.91 148.936 763.982 143.368 763.982 137.896C763.982 136.072 763.598 126.76 753.806 126.76C745.742 126.76 743.438 133.576 743.438 137.896C743.438 144.52 748.622 148.936 754.094 148.936Z" fill="#0084FF"/>
<path d="M702.098 177.024L683.286 172.731C682.257 172.496 681.606 171.461 681.841 170.432L699.291 93.9655C699.547 92.8423 700.582 92.1922 701.611 92.4271L720.424 96.7201C721.453 96.9551 722.103 97.9896 721.847 99.1128L704.397 175.579C704.163 176.609 703.128 177.259 702.098 177.024Z" fill="#0084FF"/>
<path d="M623.52 156.16L609.312 89.2071L609.282 89.0175C609.102 87.8797 609.899 86.7813 611.132 86.5859L622.026 84.1789C627.084 81.1415 633.89 78.702 641.002 77.5749C663.473 74.0133 674.893 84.7418 676.802 96.7835C677.809 103.136 675.601 108.832 672.125 113.271C675.126 115.031 677.637 116.771 679.601 119.959C681.799 123.401 683.113 126.789 683.609 129.918C686.164 146.037 668.299 157.811 649.335 160.817C644.026 161.658 626.07 163.046 623.52 156.16ZM635.713 97.5612L639.212 114.114C643.827 113.188 655.13 110.91 653.838 102.756C653.147 98.3944 649.087 94.8583 640.933 96.1507C639.131 96.4363 637.36 96.9114 635.713 97.5612ZM642.299 128.69L645.387 143.266C646.745 143.246 647.992 143.145 649.225 142.95C656.241 141.838 660.881 137.992 660.129 133.251C659.348 128.321 654.865 126.407 647.28 127.609C645.478 127.895 643.786 128.26 642.299 128.69Z" fill="#0084FF"/>
<path d="M524.514 187.222L511.897 179.256C510.595 178.413 510.084 177.529 510.27 176.587C510.4 175.928 510.813 175.324 511.413 174.758L530.526 155.727C530.299 155.388 530.204 154.88 530.033 154.259L520.272 110.946C520.119 110.231 520.042 109.629 520.135 109.158C520.395 107.84 521.692 107.215 523.179 107.116L539.027 105.641C539.423 105.621 539.818 105.601 540.195 105.675C541.89 106.01 542.873 107.475 543.217 109.206L549.432 136.752C556.641 129.465 563.662 122.14 569.707 115.797C570.457 114.967 571.228 114.531 572.264 114.736C572.829 114.847 573.64 115.202 574.47 115.953L587.075 125.972C588.094 126.759 588.529 127.53 588.362 128.378C588.084 129.791 577.12 147.688 529.371 186.908C528.225 187.758 527.266 188.156 526.136 187.933C525.665 187.841 525.118 187.635 524.514 187.222Z" fill="#0084FF"/>
<path d="M515.678 109.296L511.166 120.912C510.782 122.064 509.726 123.024 508.574 123.024C508.19 123.024 507.71 122.832 507.326 122.544C505.598 121.104 502.238 120.048 498.878 120.048C496.382 120.048 488.03 120.624 488.03 131.088C488.03 137.52 492.638 141.744 498.878 141.744C503.006 141.744 507.806 139.92 512.414 135.696C512.99 135.12 513.854 134.64 514.718 134.64C515.39 134.64 516.158 135.024 516.83 136.176C518.558 139.44 519.71 141.168 521.246 144.336C521.534 144.912 521.726 145.584 521.726 146.256C521.726 147.408 521.246 148.464 520.094 149.616C512.318 157.008 503.102 160.272 494.462 160.272C478.526 160.272 464.414 149.136 464.414 132.24C464.414 110.736 481.598 102 497.438 102C508.094 102 515.774 106.224 515.774 108.624C515.774 108.816 515.774 109.104 515.678 109.296Z" fill="#0084FF"/>
<path d="M454.704 116.774L455.033 119.925C455.59 125.272 457.28 129.439 461.573 132.659C462.195 133.077 463.25 133.932 463.359 134.982C463.419 135.555 463.192 136.158 462.574 136.705C462.594 136.896 453.848 144.661 453.848 144.661C452.973 145.524 452.048 145.91 451.188 146C449.47 146.179 433.665 142.712 431.893 125.716L431.554 122.469C430.509 112.444 425.201 108.75 418.191 109.095L419.991 143.944C420.09 144.899 419.321 145.848 418.366 145.948L418.175 145.968L398.979 147.004C397.823 147.028 396.97 146.248 396.85 145.102L394.251 95.1828C394.237 94.1226 395.007 93.1736 395.962 93.0741L396.153 93.0541L406.906 92.512C410.551 91.3598 414.044 90.6095 417.481 90.2511C436.864 88.2301 452.803 98.5367 454.704 116.774Z" fill="#0084FF"/>
<path d="M371.624 164.368L354.32 156.903C349.498 156.67 344.997 155.838 341.031 154.385C328.501 149.794 321.343 139.196 326.675 122.133C328.551 116.175 332.467 104.931 334.491 99.1294C335.845 95.4337 337.371 95.175 338.486 95.4812C338.642 95.334 352.977 99.462 354.509 100.024C356.312 100.684 356.703 101.85 356.396 102.964C354.724 109.202 353.121 114.136 349.731 125.06C347.251 132.944 348.965 136.639 352.75 138.027C354.553 138.687 356.948 138.849 359.598 138.593L372.582 108.18C373.069 107.131 374.234 106.74 375.226 107.104L392.8 114.668C393.882 115.064 394.273 116.23 393.876 117.312L374.267 163.292C373.781 164.341 372.615 164.732 371.624 164.368Z" fill="#0084FF"/>
<path d="M323.43 114.088C323.43 132.808 304.422 143.272 290.79 143.272C275.142 143.272 261.414 131.944 261.414 115.048C261.414 95.272 276.198 85 293.094 85C314.31 85 323.43 101.608 323.43 114.088ZM293.094 124.936C299.91 124.936 302.982 119.368 302.982 113.896C302.982 112.072 302.598 102.76 292.806 102.76C284.742 102.76 282.438 109.576 282.438 113.896C282.438 120.52 287.622 124.936 293.094 124.936Z" fill="#0084FF"/>
<path d="M202.714 163.601L184.794 97.5448L184.754 97.3571C184.51 96.2312 185.245 95.0899 186.465 94.8261L197.208 91.8154C202.089 88.5006 208.748 85.6853 215.786 84.1633C238.024 79.3539 250.025 89.4288 252.602 101.345C253.961 107.632 252.075 113.442 248.852 118.068C251.946 119.658 254.55 121.255 256.688 124.329C259.075 127.643 260.576 130.953 261.246 134.049C264.696 150 247.515 162.752 228.749 166.811C223.494 167.947 205.644 170.334 202.714 163.601ZM211.62 104.413L216.036 120.745C220.593 119.563 231.752 116.659 230.006 108.589C229.073 104.273 224.822 100.969 216.753 102.714C214.97 103.1 213.228 103.673 211.62 104.413ZM219.932 135.126L223.828 149.508C225.182 149.411 226.423 149.241 227.642 148.978C234.586 147.476 239.003 143.378 237.989 138.686C236.933 133.807 232.351 132.146 224.844 133.769C223.062 134.155 221.393 134.614 219.932 135.126Z" fill="#0084FF"/>
<mask id="mask0_0_1" style="mask-type:alpha" maskUnits="userSpaceOnUse" x="180" y="70" width="720" height="128">
<mask id="path-3-outside-1_0_1" maskUnits="userSpaceOnUse" x="179.707" y="69.0645" width="720" height="129" fill="black">
<rect fill="white" x="179.707" y="69.0645" width="720" height="129"/>
<path d="M894.759 138.395L888.716 150.498C888.103 151.651 887.424 152.329 886.473 152.464C885.998 152.531 885.401 152.422 884.777 152.122C879.064 149.44 866.147 143.803 860.868 141.448C860.244 141.148 859.566 140.469 859.445 139.613C859.378 139.138 859.501 138.636 859.895 137.998L865.732 128.543C861.274 131.986 857.238 134.981 855.472 136.2L854.942 136.566L858.098 152.699C858.26 153.84 857.634 154.898 856.493 155.059L837.631 158.796C836.585 158.944 835.527 158.318 835.27 157.191L820.285 80.0986L820.258 79.9085C820.123 78.9579 820.858 77.9814 821.795 77.7518L840.671 74.1101L840.861 74.0832C841.906 73.9351 842.788 74.683 843.031 75.7151L850.841 115.816C854.307 112.223 868.934 97.7418 873.116 97.1498C873.877 97.0421 874.786 97.3012 875.721 98.4293L885.427 110.144C885.888 110.661 886.159 111.204 886.24 111.775C886.374 112.725 885.925 113.661 884.865 114.393C882.65 115.87 877.65 119.584 872.39 123.528C879.34 124.677 894.658 132.883 895.155 136.4C895.236 136.97 895.127 137.568 894.759 138.395Z"/>
<path d="M824.274 136.863L823.772 149.314C823.783 150.528 823.095 151.779 822.005 152.153C821.642 152.277 821.126 152.251 820.669 152.103C818.567 151.301 815.047 151.392 811.868 152.481C809.507 153.29 801.793 156.543 805.186 166.442C807.271 172.526 813 175.028 818.903 173.005C822.808 171.667 826.757 168.385 829.746 162.895C830.105 162.163 830.766 161.429 831.584 161.149C832.219 160.931 833.07 161.045 834.08 161.917C836.772 164.445 838.423 165.706 840.903 168.205C841.362 168.656 841.761 169.229 841.979 169.865C842.353 170.955 842.241 172.11 841.525 173.573C836.566 183.087 828.906 189.163 820.733 191.964C805.658 197.131 788.697 191.172 783.219 175.189C776.247 154.846 789.67 141.011 804.654 135.875C814.734 132.42 823.369 133.926 824.147 136.196C824.21 136.378 824.303 136.65 824.274 136.863Z"/>
<path d="M784.43 138.088C784.43 156.808 765.422 167.272 751.79 167.272C736.142 167.272 722.414 155.944 722.414 139.048C722.414 119.272 737.198 109 754.094 109C775.31 109 784.43 125.608 784.43 138.088ZM754.094 148.936C760.91 148.936 763.982 143.368 763.982 137.896C763.982 136.072 763.598 126.76 753.806 126.76C745.742 126.76 743.438 133.576 743.438 137.896C743.438 144.52 748.622 148.936 754.094 148.936Z"/>
<path d="M702.098 177.024L683.286 172.731C682.257 172.496 681.606 171.461 681.841 170.432L699.291 93.9655C699.547 92.8423 700.582 92.1922 701.611 92.4271L720.424 96.7201C721.453 96.9551 722.103 97.9896 721.847 99.1128L704.397 175.579C704.163 176.609 703.128 177.259 702.098 177.024Z"/>
<path d="M623.52 156.16L609.312 89.2071L609.282 89.0175C609.102 87.8797 609.899 86.7813 611.132 86.5859L622.026 84.1789C627.084 81.1415 633.89 78.702 641.002 77.5749C663.473 74.0133 674.893 84.7418 676.802 96.7835C677.809 103.136 675.601 108.832 672.125 113.271C675.126 115.031 677.637 116.771 679.601 119.959C681.799 123.401 683.113 126.789 683.609 129.918C686.164 146.037 668.299 157.811 649.335 160.817C644.026 161.658 626.07 163.046 623.52 156.16ZM635.713 97.5612L639.212 114.114C643.827 113.188 655.13 110.91 653.838 102.756C653.147 98.3944 649.087 94.8583 640.933 96.1507C639.131 96.4363 637.36 96.9114 635.713 97.5612ZM642.299 128.69L645.387 143.266C646.745 143.246 647.992 143.145 649.225 142.95C656.241 141.838 660.881 137.992 660.129 133.251C659.348 128.321 654.865 126.407 647.28 127.609C645.478 127.895 643.786 128.26 642.299 128.69Z"/>
<path d="M524.514 187.222L511.897 179.256C510.595 178.413 510.084 177.529 510.27 176.587C510.4 175.928 510.813 175.324 511.413 174.758L530.526 155.727C530.299 155.388 530.204 154.88 530.033 154.259L520.272 110.946C520.119 110.231 520.042 109.629 520.135 109.158C520.395 107.84 521.692 107.215 523.179 107.116L539.027 105.641C539.423 105.621 539.818 105.601 540.195 105.675C541.89 106.01 542.873 107.475 543.217 109.206L549.432 136.752C556.641 129.465 563.662 122.14 569.707 115.797C570.457 114.967 571.228 114.531 572.264 114.736C572.829 114.847 573.64 115.202 574.47 115.953L587.075 125.972C588.094 126.759 588.529 127.53 588.362 128.378C588.084 129.791 577.12 147.688 529.371 186.908C528.225 187.758 527.266 188.156 526.136 187.933C525.665 187.841 525.118 187.635 524.514 187.222Z"/>
<path d="M515.678 109.296L511.166 120.912C510.782 122.064 509.726 123.024 508.574 123.024C508.19 123.024 507.71 122.832 507.326 122.544C505.598 121.104 502.238 120.048 498.878 120.048C496.382 120.048 488.03 120.624 488.03 131.088C488.03 137.52 492.638 141.744 498.878 141.744C503.006 141.744 507.806 139.92 512.414 135.696C512.99 135.12 513.854 134.64 514.718 134.64C515.39 134.64 516.158 135.024 516.83 136.176C518.558 139.44 519.71 141.168 521.246 144.336C521.534 144.912 521.726 145.584 521.726 146.256C521.726 147.408 521.246 148.464 520.094 149.616C512.318 157.008 503.102 160.272 494.462 160.272C478.526 160.272 464.414 149.136 464.414 132.24C464.414 110.736 481.598 102 497.438 102C508.094 102 515.774 106.224 515.774 108.624C515.774 108.816 515.774 109.104 515.678 109.296Z"/>
<path d="M454.704 116.774L455.033 119.925C455.59 125.272 457.28 129.439 461.573 132.659C462.195 133.077 463.25 133.932 463.359 134.982C463.419 135.555 463.192 136.158 462.574 136.705C462.594 136.896 453.848 144.661 453.848 144.661C452.973 145.524 452.048 145.91 451.188 146C449.47 146.179 433.665 142.712 431.893 125.716L431.554 122.469C430.509 112.444 425.201 108.75 418.191 109.095L419.991 143.944C420.09 144.899 419.321 145.848 418.366 145.948L418.175 145.968L398.979 147.004C397.823 147.028 396.97 146.248 396.85 145.102L394.251 95.1828C394.237 94.1226 395.007 93.1736 395.962 93.0741L396.153 93.0541L406.906 92.512C410.551 91.3598 414.044 90.6095 417.481 90.2511C436.864 88.2301 452.803 98.5367 454.704 116.774Z"/>
<path d="M371.624 164.368L354.32 156.903C349.498 156.67 344.997 155.838 341.031 154.385C328.501 149.794 321.343 139.196 326.675 122.133C328.551 116.175 332.467 104.931 334.491 99.1294C335.845 95.4337 337.371 95.175 338.486 95.4812C338.642 95.334 352.977 99.462 354.509 100.024C356.312 100.684 356.703 101.85 356.396 102.964C354.724 109.202 353.121 114.136 349.731 125.06C347.251 132.944 348.965 136.639 352.75 138.027C354.553 138.687 356.948 138.849 359.598 138.593L372.582 108.18C373.069 107.131 374.234 106.74 375.226 107.104L392.8 114.668C393.882 115.064 394.273 116.23 393.876 117.312L374.267 163.292C373.781 164.341 372.615 164.732 371.624 164.368Z"/>
<path d="M323.43 114.088C323.43 132.808 304.422 143.272 290.79 143.272C275.142 143.272 261.414 131.944 261.414 115.048C261.414 95.272 276.198 85 293.094 85C314.31 85 323.43 101.608 323.43 114.088ZM293.094 124.936C299.91 124.936 302.982 119.368 302.982 113.896C302.982 112.072 302.598 102.76 292.806 102.76C284.742 102.76 282.438 109.576 282.438 113.896C282.438 120.52 287.622 124.936 293.094 124.936Z"/>
<path d="M202.714 163.601L184.794 97.5448L184.754 97.3571C184.51 96.2312 185.245 95.0899 186.465 94.8261L197.208 91.8154C202.089 88.5006 208.748 85.6853 215.786 84.1633C238.024 79.3539 250.025 89.4288 252.602 101.345C253.961 107.632 252.075 113.442 248.852 118.068C251.946 119.658 254.55 121.255 256.688 124.329C259.075 127.643 260.576 130.953 261.246 134.049C264.696 150 247.515 162.752 228.749 166.811C223.494 167.947 205.644 170.334 202.714 163.601ZM211.62 104.413L216.036 120.745C220.593 119.563 231.752 116.659 230.006 108.589C229.073 104.273 224.822 100.969 216.753 102.714C214.97 103.1 213.228 103.673 211.62 104.413ZM219.932 135.126L223.828 149.508C225.182 149.411 226.423 149.241 227.642 148.978C234.586 147.476 239.003 143.378 237.989 138.686C236.933 133.807 232.351 132.146 224.844 133.769C223.062 134.155 221.393 134.614 219.932 135.126Z"/>
</mask>
<path d="M894.759 138.395L888.716 150.498C888.103 151.651 887.424 152.329 886.473 152.464C885.998 152.531 885.401 152.422 884.777 152.122C879.064 149.44 866.147 143.803 860.868 141.448C860.244 141.148 859.566 140.469 859.445 139.613C859.378 139.138 859.501 138.636 859.895 137.998L865.732 128.543C861.274 131.986 857.238 134.981 855.472 136.2L854.942 136.566L858.098 152.699C858.26 153.84 857.634 154.898 856.493 155.059L837.631 158.796C836.585 158.944 835.527 158.318 835.27 157.191L820.285 80.0986L820.258 79.9085C820.123 78.9579 820.858 77.9814 821.795 77.7518L840.671 74.1101L840.861 74.0832C841.906 73.9351 842.788 74.683 843.031 75.7151L850.841 115.816C854.307 112.223 868.934 97.7418 873.116 97.1498C873.877 97.0421 874.786 97.3012 875.721 98.4293L885.427 110.144C885.888 110.661 886.159 111.204 886.24 111.775C886.374 112.725 885.925 113.661 884.865 114.393C882.65 115.87 877.65 119.584 872.39 123.528C879.34 124.677 894.658 132.883 895.155 136.4C895.236 136.97 895.127 137.568 894.759 138.395Z" fill="#5915F8"/>
<path d="M824.274 136.863L823.772 149.314C823.783 150.528 823.095 151.779 822.005 152.153C821.642 152.277 821.126 152.251 820.669 152.103C818.567 151.301 815.047 151.392 811.868 152.481C809.507 153.29 801.793 156.543 805.186 166.442C807.271 172.526 813 175.028 818.903 173.005C822.808 171.667 826.757 168.385 829.746 162.895C830.105 162.163 830.766 161.429 831.584 161.149C832.219 160.931 833.07 161.045 834.08 161.917C836.772 164.445 838.423 165.706 840.903 168.205C841.362 168.656 841.761 169.229 841.979 169.865C842.353 170.955 842.241 172.11 841.525 173.573C836.566 183.087 828.906 189.163 820.733 191.964C805.658 197.131 788.697 191.172 783.219 175.189C776.247 154.846 789.67 141.011 804.654 135.875C814.734 132.42 823.369 133.926 824.147 136.196C824.21 136.378 824.303 136.65 824.274 136.863Z" fill="#5915F8"/>
<path d="M784.43 138.088C784.43 156.808 765.422 167.272 751.79 167.272C736.142 167.272 722.414 155.944 722.414 139.048C722.414 119.272 737.198 109 754.094 109C775.31 109 784.43 125.608 784.43 138.088ZM754.094 148.936C760.91 148.936 763.982 143.368 763.982 137.896C763.982 136.072 763.598 126.76 753.806 126.76C745.742 126.76 743.438 133.576 743.438 137.896C743.438 144.52 748.622 148.936 754.094 148.936Z" fill="#5915F8"/>
<path d="M702.098 177.024L683.286 172.731C682.257 172.496 681.606 171.461 681.841 170.432L699.291 93.9655C699.547 92.8423 700.582 92.1922 701.611 92.4271L720.424 96.7201C721.453 96.9551 722.103 97.9896 721.847 99.1128L704.397 175.579C704.163 176.609 703.128 177.259 702.098 177.024Z" fill="#5915F8"/>
<path d="M623.52 156.16L609.312 89.2071L609.282 89.0175C609.102 87.8797 609.899 86.7813 611.132 86.5859L622.026 84.1789C627.084 81.1415 633.89 78.702 641.002 77.5749C663.473 74.0133 674.893 84.7418 676.802 96.7835C677.809 103.136 675.601 108.832 672.125 113.271C675.126 115.031 677.637 116.771 679.601 119.959C681.799 123.401 683.113 126.789 683.609 129.918C686.164 146.037 668.299 157.811 649.335 160.817C644.026 161.658 626.07 163.046 623.52 156.16ZM635.713 97.5612L639.212 114.114C643.827 113.188 655.13 110.91 653.838 102.756C653.147 98.3944 649.087 94.8583 640.933 96.1507C639.131 96.4363 637.36 96.9114 635.713 97.5612ZM642.299 128.69L645.387 143.266C646.745 143.246 647.992 143.145 649.225 142.95C656.241 141.838 660.881 137.992 660.129 133.251C659.348 128.321 654.865 126.407 647.28 127.609C645.478 127.895 643.786 128.26 642.299 128.69Z" fill="#5915F8"/>
<path d="M524.514 187.222L511.897 179.256C510.595 178.413 510.084 177.529 510.27 176.587C510.4 175.928 510.813 175.324 511.413 174.758L530.526 155.727C530.299 155.388 530.204 154.88 530.033 154.259L520.272 110.946C520.119 110.231 520.042 109.629 520.135 109.158C520.395 107.84 521.692 107.215 523.179 107.116L539.027 105.641C539.423 105.621 539.818 105.601 540.195 105.675C541.89 106.01 542.873 107.475 543.217 109.206L549.432 136.752C556.641 129.465 563.662 122.14 569.707 115.797C570.457 114.967 571.228 114.531 572.264 114.736C572.829 114.847 573.64 115.202 574.47 115.953L587.075 125.972C588.094 126.759 588.529 127.53 588.362 128.378C588.084 129.791 577.12 147.688 529.371 186.908C528.225 187.758 527.266 188.156 526.136 187.933C525.665 187.841 525.118 187.635 524.514 187.222Z" fill="#5915F8"/>
<path d="M515.678 109.296L511.166 120.912C510.782 122.064 509.726 123.024 508.574 123.024C508.19 123.024 507.71 122.832 507.326 122.544C505.598 121.104 502.238 120.048 498.878 120.048C496.382 120.048 488.03 120.624 488.03 131.088C488.03 137.52 492.638 141.744 498.878 141.744C503.006 141.744 507.806 139.92 512.414 135.696C512.99 135.12 513.854 134.64 514.718 134.64C515.39 134.64 516.158 135.024 516.83 136.176C518.558 139.44 519.71 141.168 521.246 144.336C521.534 144.912 521.726 145.584 521.726 146.256C521.726 147.408 521.246 148.464 520.094 149.616C512.318 157.008 503.102 160.272 494.462 160.272C478.526 160.272 464.414 149.136 464.414 132.24C464.414 110.736 481.598 102 497.438 102C508.094 102 515.774 106.224 515.774 108.624C515.774 108.816 515.774 109.104 515.678 109.296Z" fill="#5915F8"/>
<path d="M454.704 116.774L455.033 119.925C455.59 125.272 457.28 129.439 461.573 132.659C462.195 133.077 463.25 133.932 463.359 134.982C463.419 135.555 463.192 136.158 462.574 136.705C462.594 136.896 453.848 144.661 453.848 144.661C452.973 145.524 452.048 145.91 451.188 146C449.47 146.179 433.665 142.712 431.893 125.716L431.554 122.469C430.509 112.444 425.201 108.75 418.191 109.095L419.991 143.944C420.09 144.899 419.321 145.848 418.366 145.948L418.175 145.968L398.979 147.004C397.823 147.028 396.97 146.248 396.85 145.102L394.251 95.1828C394.237 94.1226 395.007 93.1736 395.962 93.0741L396.153 93.0541L406.906 92.512C410.551 91.3598 414.044 90.6095 417.481 90.2511C436.864 88.2301 452.803 98.5367 454.704 116.774Z" fill="#5915F8"/>
<path d="M371.624 164.368L354.32 156.903C349.498 156.67 344.997 155.838 341.031 154.385C328.501 149.794 321.343 139.196 326.675 122.133C328.551 116.175 332.467 104.931 334.491 99.1294C335.845 95.4337 337.371 95.175 338.486 95.4812C338.642 95.334 352.977 99.462 354.509 100.024C356.312 100.684 356.703 101.85 356.396 102.964C354.724 109.202 353.121 114.136 349.731 125.06C347.251 132.944 348.965 136.639 352.75 138.027C354.553 138.687 356.948 138.849 359.598 138.593L372.582 108.18C373.069 107.131 374.234 106.74 375.226 107.104L392.8 114.668C393.882 115.064 394.273 116.23 393.876 117.312L374.267 163.292C373.781 164.341 372.615 164.732 371.624 164.368Z" fill="#5915F8"/>
<path d="M323.43 114.088C323.43 132.808 304.422 143.272 290.79 143.272C275.142 143.272 261.414 131.944 261.414 115.048C261.414 95.272 276.198 85 293.094 85C314.31 85 323.43 101.608 323.43 114.088ZM293.094 124.936C299.91 124.936 302.982 119.368 302.982 113.896C302.982 112.072 302.598 102.76 292.806 102.76C284.742 102.76 282.438 109.576 282.438 113.896C282.438 120.52 287.622 124.936 293.094 124.936Z" fill="#5915F8"/>
<path d="M202.714 163.601L184.794 97.5448L184.754 97.3571C184.51 96.2312 185.245 95.0899 186.465 94.8261L197.208 91.8154C202.089 88.5006 208.748 85.6853 215.786 84.1633C238.024 79.3539 250.025 89.4288 252.602 101.345C253.961 107.632 252.075 113.442 248.852 118.068C251.946 119.658 254.55 121.255 256.688 124.329C259.075 127.643 260.576 130.953 261.246 134.049C264.696 150 247.515 162.752 228.749 166.811C223.494 167.947 205.644 170.334 202.714 163.601ZM211.62 104.413L216.036 120.745C220.593 119.563 231.752 116.659 230.006 108.589C229.073 104.273 224.822 100.969 216.753 102.714C214.97 103.1 213.228 103.673 211.62 104.413ZM219.932 135.126L223.828 149.508C225.182 149.411 226.423 149.241 227.642 148.978C234.586 147.476 239.003 143.378 237.989 138.686C236.933 133.807 232.351 132.146 224.844 133.769C223.062 134.155 221.393 134.614 219.932 135.126Z" fill="#5915F8"/>
<path d="M894.759 138.395L888.716 150.498C888.103 151.651 887.424 152.329 886.473 152.464C885.998 152.531 885.401 152.422 884.777 152.122C879.064 149.44 866.147 143.803 860.868 141.448C860.244 141.148 859.566 140.469 859.445 139.613C859.378 139.138 859.501 138.636 859.895 137.998L865.732 128.543C861.274 131.986 857.238 134.981 855.472 136.2L854.942 136.566L858.098 152.699C858.26 153.84 857.634 154.898 856.493 155.059L837.631 158.796C836.585 158.944 835.527 158.318 835.27 157.191L820.285 80.0986L820.258 79.9085C820.123 78.9579 820.858 77.9814 821.795 77.7518L840.671 74.1101L840.861 74.0832C841.906 73.9351 842.788 74.683 843.031 75.7151L850.841 115.816C854.307 112.223 868.934 97.7418 873.116 97.1498C873.877 97.0421 874.786 97.3012 875.721 98.4293L885.427 110.144C885.888 110.661 886.159 111.204 886.24 111.775C886.374 112.725 885.925 113.661 884.865 114.393C882.65 115.87 877.65 119.584 872.39 123.528C879.34 124.677 894.658 132.883 895.155 136.4C895.236 136.97 895.127 137.568 894.759 138.395Z" stroke="#2600FF" stroke-width="8" mask="url(#path-3-outside-1_0_1)"/>
<path d="M824.274 136.863L823.772 149.314C823.783 150.528 823.095 151.779 822.005 152.153C821.642 152.277 821.126 152.251 820.669 152.103C818.567 151.301 815.047 151.392 811.868 152.481C809.507 153.29 801.793 156.543 805.186 166.442C807.271 172.526 813 175.028 818.903 173.005C822.808 171.667 826.757 168.385 829.746 162.895C830.105 162.163 830.766 161.429 831.584 161.149C832.219 160.931 833.07 161.045 834.08 161.917C836.772 164.445 838.423 165.706 840.903 168.205C841.362 168.656 841.761 169.229 841.979 169.865C842.353 170.955 842.241 172.11 841.525 173.573C836.566 183.087 828.906 189.163 820.733 191.964C805.658 197.131 788.697 191.172 783.219 175.189C776.247 154.846 789.67 141.011 804.654 135.875C814.734 132.42 823.369 133.926 824.147 136.196C824.21 136.378 824.303 136.65 824.274 136.863Z" stroke="#2600FF" stroke-width="8" mask="url(#path-3-outside-1_0_1)"/>
<path d="M784.43 138.088C784.43 156.808 765.422 167.272 751.79 167.272C736.142 167.272 722.414 155.944 722.414 139.048C722.414 119.272 737.198 109 754.094 109C775.31 109 784.43 125.608 784.43 138.088ZM754.094 148.936C760.91 148.936 763.982 143.368 763.982 137.896C763.982 136.072 763.598 126.76 753.806 126.76C745.742 126.76 743.438 133.576 743.438 137.896C743.438 144.52 748.622 148.936 754.094 148.936Z" stroke="#2600FF" stroke-width="8" mask="url(#path-3-outside-1_0_1)"/>
<path d="M702.098 177.024L683.286 172.731C682.257 172.496 681.606 171.461 681.841 170.432L699.291 93.9655C699.547 92.8423 700.582 92.1922 701.611 92.4271L720.424 96.7201C721.453 96.9551 722.103 97.9896 721.847 99.1128L704.397 175.579C704.163 176.609 703.128 177.259 702.098 177.024Z" stroke="#2600FF" stroke-width="8" mask="url(#path-3-outside-1_0_1)"/>
<path d="M623.52 156.16L609.312 89.2071L609.282 89.0175C609.102 87.8797 609.899 86.7813 611.132 86.5859L622.026 84.1789C627.084 81.1415 633.89 78.702 641.002 77.5749C663.473 74.0133 674.893 84.7418 676.802 96.7835C677.809 103.136 675.601 108.832 672.125 113.271C675.126 115.031 677.637 116.771 679.601 119.959C681.799 123.401 683.113 126.789 683.609 129.918C686.164 146.037 668.299 157.811 649.335 160.817C644.026 161.658 626.07 163.046 623.52 156.16ZM635.713 97.5612L639.212 114.114C643.827 113.188 655.13 110.91 653.838 102.756C653.147 98.3944 649.087 94.8583 640.933 96.1507C639.131 96.4363 637.36 96.9114 635.713 97.5612ZM642.299 128.69L645.387 143.266C646.745 143.246 647.992 143.145 649.225 142.95C656.241 141.838 660.881 137.992 660.129 133.251C659.348 128.321 654.865 126.407 647.28 127.609C645.478 127.895 643.786 128.26 642.299 128.69Z" stroke="#2600FF" stroke-width="8" mask="url(#path-3-outside-1_0_1)"/>
<path d="M524.514 187.222L511.897 179.256C510.595 178.413 510.084 177.529 510.27 176.587C510.4 175.928 510.813 175.324 511.413 174.758L530.526 155.727C530.299 155.388 530.204 154.88 530.033 154.259L520.272 110.946C520.119 110.231 520.042 109.629 520.135 109.158C520.395 107.84 521.692 107.215 523.179 107.116L539.027 105.641C539.423 105.621 539.818 105.601 540.195 105.675C541.89 106.01 542.873 107.475 543.217 109.206L549.432 136.752C556.641 129.465 563.662 122.14 569.707 115.797C570.457 114.967 571.228 114.531 572.264 114.736C572.829 114.847 573.64 115.202 574.47 115.953L587.075 125.972C588.094 126.759 588.529 127.53 588.362 128.378C588.084 129.791 577.12 147.688 529.371 186.908C528.225 187.758 527.266 188.156 526.136 187.933C525.665 187.841 525.118 187.635 524.514 187.222Z" stroke="#2600FF" stroke-width="8" mask="url(#path-3-outside-1_0_1)"/>
<path d="M515.678 109.296L511.166 120.912C510.782 122.064 509.726 123.024 508.574 123.024C508.19 123.024 507.71 122.832 507.326 122.544C505.598 121.104 502.238 120.048 498.878 120.048C496.382 120.048 488.03 120.624 488.03 131.088C488.03 137.52 492.638 141.744 498.878 141.744C503.006 141.744 507.806 139.92 512.414 135.696C512.99 135.12 513.854 134.64 514.718 134.64C515.39 134.64 516.158 135.024 516.83 136.176C518.558 139.44 519.71 141.168 521.246 144.336C521.534 144.912 521.726 145.584 521.726 146.256C521.726 147.408 521.246 148.464 520.094 149.616C512.318 157.008 503.102 160.272 494.462 160.272C478.526 160.272 464.414 149.136 464.414 132.24C464.414 110.736 481.598 102 497.438 102C508.094 102 515.774 106.224 515.774 108.624C515.774 108.816 515.774 109.104 515.678 109.296Z" stroke="#2600FF" stroke-width="8" mask="url(#path-3-outside-1_0_1)"/>
<path d="M454.704 116.774L455.033 119.925C455.59 125.272 457.28 129.439 461.573 132.659C462.195 133.077 463.25 133.932 463.359 134.982C463.419 135.555 463.192 136.158 462.574 136.705C462.594 136.896 453.848 144.661 453.848 144.661C452.973 145.524 452.048 145.91 451.188 146C449.47 146.179 433.665 142.712 431.893 125.716L431.554 122.469C430.509 112.444 425.201 108.75 418.191 109.095L419.991 143.944C420.09 144.899 419.321 145.848 418.366 145.948L418.175 145.968L398.979 147.004C397.823 147.028 396.97 146.248 396.85 145.102L394.251 95.1828C394.237 94.1226 395.007 93.1736 395.962 93.0741L396.153 93.0541L406.906 92.512C410.551 91.3598 414.044 90.6095 417.481 90.2511C436.864 88.2301 452.803 98.5367 454.704 116.774Z" stroke="#2600FF" stroke-width="8" mask="url(#path-3-outside-1_0_1)"/>
<path d="M371.624 164.368L354.32 156.903C349.498 156.67 344.997 155.838 341.031 154.385C328.501 149.794 321.343 139.196 326.675 122.133C328.551 116.175 332.467 104.931 334.491 99.1294C335.845 95.4337 337.371 95.175 338.486 95.4812C338.642 95.334 352.977 99.462 354.509 100.024C356.312 100.684 356.703 101.85 356.396 102.964C354.724 109.202 353.121 114.136 349.731 125.06C347.251 132.944 348.965 136.639 352.75 138.027C354.553 138.687 356.948 138.849 359.598 138.593L372.582 108.18C373.069 107.131 374.234 106.74 375.226 107.104L392.8 114.668C393.882 115.064 394.273 116.23 393.876 117.312L374.267 163.292C373.781 164.341 372.615 164.732 371.624 164.368Z" stroke="#2600FF" stroke-width="8" mask="url(#path-3-outside-1_0_1)"/>
<path d="M323.43 114.088C323.43 132.808 304.422 143.272 290.79 143.272C275.142 143.272 261.414 131.944 261.414 115.048C261.414 95.272 276.198 85 293.094 85C314.31 85 323.43 101.608 323.43 114.088ZM293.094 124.936C299.91 124.936 302.982 119.368 302.982 113.896C302.982 112.072 302.598 102.76 292.806 102.76C284.742 102.76 282.438 109.576 282.438 113.896C282.438 120.52 287.622 124.936 293.094 124.936Z" stroke="#2600FF" stroke-width="8" mask="url(#path-3-outside-1_0_1)"/>
<path d="M202.714 163.601L184.794 97.5448L184.754 97.3571C184.51 96.2312 185.245 95.0899 186.465 94.8261L197.208 91.8154C202.089 88.5006 208.748 85.6853 215.786 84.1633C238.024 79.3539 250.025 89.4288 252.602 101.345C253.961 107.632 252.075 113.442 248.852 118.068C251.946 119.658 254.55 121.255 256.688 124.329C259.075 127.643 260.576 130.953 261.246 134.049C264.696 150 247.515 162.752 228.749 166.811C223.494 167.947 205.644 170.334 202.714 163.601ZM211.62 104.413L216.036 120.745C220.593 119.563 231.752 116.659 230.006 108.589C229.073 104.273 224.822 100.969 216.753 102.714C214.97 103.1 213.228 103.673 211.62 104.413ZM219.932 135.126L223.828 149.508C225.182 149.411 226.423 149.241 227.642 148.978C234.586 147.476 239.003 143.378 237.989 138.686C236.933 133.807 232.351 132.146 224.844 133.769C223.062 134.155 221.393 134.614 219.932 135.126Z" stroke="#2600FF" stroke-width="8" mask="url(#path-3-outside-1_0_1)"/>
</mask>
<g mask="url(#mask0_0_1)">
<g filter="url(#filter0_f_0_1)">
<path d="M199.705 137.581L175.102 191.594C170.719 201.216 168.921 211.815 169.885 222.344C172.738 253.509 198.78 277.42 230.076 277.607L837.13 281.247C879.792 281.503 909.532 239.008 894.68 199.013L880.939 162.008C870.111 132.849 839.077 116.507 808.908 124.077L766.925 134.611C742.506 140.739 714.113 132.414 689.324 128.015C674.476 125.38 659.414 123.425 650.914 115.277C618.558 84.2592 604.559 80.6951 597.807 88.5839C577.84 111.91 563.219 132.619 534.265 122.4L493.943 108.169C476.252 101.925 456.67 104.17 440.85 114.255L421.634 126.505C400.156 140.197 372.432 139.103 352.1 123.76L327.64 105.303C312.949 94.217 294.038 90.3566 276.177 94.7977L240.498 103.669C222.44 108.16 207.418 120.647 199.705 137.581Z" fill="#CD00DF" fill-opacity="0.5"/>
</g>
</g>
<g clip-path="url(#clip0_0_1)">
<path d="M449.221 168.211L447.371 168.971C446.881 169.173 446.33 169.171 445.841 168.967C445.351 168.763 444.963 168.373 444.761 167.882L441.719 160.483C441.518 159.992 441.519 159.441 441.724 158.952C441.928 158.462 442.318 158.074 442.809 157.872L445.759 156.66M453.908 153.31L455.757 152.55C456.248 152.348 456.799 152.349 457.288 152.554C457.778 152.758 458.166 153.148 458.368 153.639L461.409 161.038C461.611 161.529 461.61 162.079 461.405 162.569C461.201 163.058 460.811 163.447 460.32 163.648L457.37 164.861M463.968 156.743L463.208 154.893M450.208 154.831L448.79 161.901L454.339 159.62L452.921 166.69" stroke="#E82BF2" stroke-width="2" stroke-linecap="round" stroke-linejoin="round"/>
</g>
<g clip-path="url(#clip1_0_1)">
<path d="M860.7 92.7601C861.681 92.3568 862.462 91.5803 862.87 90.6013C863.279 89.6223 863.282 88.5211 862.879 87.5399L860.598 81.9902L846.724 87.6919L849.385 94.1665C849.687 94.9024 849.685 95.7283 849.379 96.4626C849.072 97.1968 848.486 97.7792 847.75 98.0816M860.7 92.7601L847.75 98.0816M860.7 92.7601C861.681 92.3568 862.782 92.3599 863.761 92.7686C864.74 93.1773 865.517 93.9582 865.92 94.9394L868.2 100.489L854.326 106.191L851.666 99.7161C851.363 98.9802 850.781 98.3945 850.047 98.088C849.312 97.7815 848.486 97.7792 847.75 98.0816" stroke="#E82BF2" stroke-width="2" stroke-linecap="round" stroke-linejoin="round"/>
</g>
<g clip-path="url(#clip2_0_1)">
<path d="M722.009 103.817L728.944 105.534L733.89 100.38M730.926 112.386L728.942 105.528M735.853 106.477L734.278 101.034C734.209 100.795 734.078 100.579 733.899 100.407C733.72 100.235 733.498 100.113 733.257 100.054L727.707 98.7103C727.465 98.6507 727.212 98.6557 726.973 98.7248C726.735 98.7939 726.518 98.9247 726.346 99.104L722.37 103.204C722.198 103.383 722.076 103.604 722.017 103.845C721.957 104.087 721.962 104.339 722.031 104.578L723.606 110.021C723.675 110.26 723.806 110.476 723.985 110.648C724.164 110.82 724.385 110.942 724.627 111.002L730.177 112.345C730.419 112.405 730.671 112.4 730.91 112.33C731.149 112.261 731.366 112.131 731.538 111.951L735.513 107.851C735.685 107.672 735.807 107.451 735.867 107.21C735.927 106.969 735.922 106.716 735.853 106.477Z" stroke="#E82BF2" stroke-width="1.41667" stroke-linecap="round" stroke-linejoin="round"/>
</g>
<g clip-path="url(#clip3_0_1)">
<path d="M264.213 85.3225L263.089 86.9769M260.904 83.0748L259.78 84.7292M256.588 84.9789L264.033 90.036M259.101 83.0592L264.892 86.9925C265.349 87.3029 265.467 87.9248 265.157 88.3816L261.224 94.172C260.913 94.6289 260.291 94.7477 259.835 94.4373L254.044 90.504C253.587 90.1936 253.468 89.5717 253.779 89.1149L257.712 83.3245C258.023 82.8676 258.644 82.7488 259.101 83.0592Z" stroke="#E82BF2" stroke-linecap="round" stroke-linejoin="round"/>
</g>
<g clip-path="url(#clip4_0_1)">
<path d="M461.8 96.0542L463.074 99.7078L465.934 100.077M469.163 97.5854C470.335 100.948 468.559 104.625 465.196 105.797C461.833 106.969 458.156 105.193 456.984 101.83C455.812 98.4672 457.588 94.7907 460.951 93.6185C464.314 92.4463 467.991 94.2223 469.163 97.5854Z" stroke="#E82BF2" stroke-width="1.28972" stroke-linecap="round" stroke-linejoin="round"/>
</g>
<g clip-path="url(#clip5_0_1)">
<path d="M688.713 91.0099L690.292 94.0938L693.752 94.2659M683.076 99.7341L684.954 96.8279L683.374 93.744M693.454 100.256L689.993 100.084L688.116 102.99M685.349 91.0195L688.41 97.0056L695.126 97.3361M684.767 102.644L688.414 97M692.007 102.496L694.901 98.0161C695.028 97.8196 695.1 97.5932 695.112 97.3597C695.124 97.1262 695.073 96.8937 694.967 96.6856L692.494 91.9133C692.387 91.705 692.228 91.5285 692.031 91.4015C691.835 91.2745 691.608 91.2015 691.374 91.1898L686.007 90.8972C685.774 90.8855 685.541 90.9354 685.333 91.0419C685.125 91.1485 684.949 91.3079 684.822 91.5041L681.927 95.9839C681.801 96.1804 681.728 96.4068 681.716 96.6403C681.705 96.8738 681.755 97.1063 681.861 97.3144L684.334 102.087C684.441 102.295 684.6 102.471 684.797 102.599C684.994 102.726 685.22 102.799 685.454 102.81L690.821 103.103C691.054 103.115 691.287 103.065 691.495 102.958C691.703 102.852 691.88 102.692 692.007 102.496Z" stroke="#E82BF2" stroke-width="1.33333" stroke-linecap="round" stroke-linejoin="round"/>
</g>
<g clip-path="url(#clip6_0_1)">
<path d="M760.616 174.183L761.408 177.076M766.403 172.598L767.195 175.492M765.634 192.508L766.426 195.402M771.421 190.924L772.213 193.817M773.338 178.994L776.231 178.201M774.658 183.816L777.552 183.024M755.013 184.012L757.906 183.219M756.333 188.834L759.227 188.042M758.515 177.869L770.089 174.699C771.154 174.408 772.254 175.035 772.546 176.1L775.715 187.674C776.007 188.74 775.379 189.84 774.314 190.131L762.74 193.301C761.675 193.592 760.575 192.965 760.283 191.9L757.114 180.326C756.822 179.26 757.449 178.16 758.515 177.869ZM762.729 181.899L768.516 180.314L770.1 186.101L764.313 187.686L762.729 181.899Z" stroke="#E82BF2" stroke-width="2" stroke-linecap="round" stroke-linejoin="round"/>
</g>
<path d="M729.778 173.521L730.419 177.469C730.503 177.993 730.377 178.529 730.067 178.959C729.756 179.389 729.288 179.679 728.764 179.764L714.945 182.004C714.421 182.089 713.885 181.963 713.455 181.652C713.025 181.342 712.736 180.874 712.651 180.35L712.01 176.402M715.159 170.826L720.894 174.961M720.894 174.961L725.03 169.225M720.894 174.961L718.974 163.116" stroke="#E82BF2" stroke-width="2" stroke-linecap="round" stroke-linejoin="round"/>
<g clip-path="url(#clip7_0_1)">
<path d="M276.05 148.419L265.405 165.351M284.516 153.741L273.871 170.673M266.494 154.224L283.426 164.868M269.155 149.991L273.388 152.652M263.833 158.457L268.066 161.118M276.532 166.44L280.765 169.101M281.854 157.974L286.087 160.635M273.662 146.918L286.903 155.242C287.922 155.883 288.229 157.229 287.588 158.248L279.264 171.489C278.623 172.508 277.277 172.815 276.258 172.174L263.017 163.85C261.998 163.209 261.691 161.863 262.332 160.844L270.656 147.603C271.297 146.584 272.643 146.277 273.662 146.918Z" stroke="#E82BF2" stroke-width="2" stroke-linecap="round" stroke-linejoin="round"/>
</g>
<g clip-path="url(#clip8_0_1)">
<path d="M552.19 109.562C552.19 109.562 552.966 108.38 555.904 107.77C558.841 107.161 561.205 108.714 564.143 108.105C567.08 107.496 567.857 106.313 567.857 106.313L565.42 94.5633C565.42 94.5633 564.644 95.7455 561.707 96.3545C558.769 96.9636 556.405 95.4113 553.467 96.0204C550.53 96.6294 549.754 97.8116 549.754 97.8116L552.19 109.562ZM552.19 109.562L553.611 116.416" stroke="#E82BF2" stroke-width="2" stroke-linecap="round" stroke-linejoin="round"/>
</g>
<g clip-path="url(#clip9_0_1)">
<path d="M348.648 95.0024C343.457 94.4512 345.004 90.7627 343.353 89.5279M353.942 100.477L355.439 96.9082C355.658 96.483 355.784 96.0161 355.809 95.5384C355.834 95.0607 355.756 94.5833 355.582 94.1378C358.613 95.0298 362.117 95.2092 364.229 90.1743C364.769 88.8868 364.793 87.4409 364.296 86.136C365.189 85.186 365.682 83.9285 365.672 82.6248C365.672 82.6248 364.719 81.8455 361.494 82.4768C359.621 81.0173 357.393 80.0826 355.039 79.7687C353.229 77.0251 352.006 76.8913 352.006 76.8913C351.069 77.7976 350.517 79.0302 350.464 80.3329C349.176 80.8971 348.156 81.9384 347.619 83.2383C345.522 88.2363 348.105 90.6103 350.849 92.1847C350.414 92.3709 350.024 92.6466 349.702 92.9938C349.381 93.3411 349.136 93.7521 348.984 94.2001L347.487 97.7688" stroke="#E82BF2" stroke-width="2" stroke-linecap="round" stroke-linejoin="round"/>
</g>
<g clip-path="url(#clip10_0_1)">
<path d="M814.706 119.092L795.334 114.121M814.706 119.092L813.215 124.903C813.083 125.417 812.753 125.858 812.296 126.128C811.84 126.398 811.295 126.475 810.781 126.344L795.283 122.367C794.769 122.235 794.329 121.904 794.059 121.448C793.789 120.991 793.711 120.446 793.843 119.932L795.334 114.121M814.706 119.092L813.077 111.56C813 111.197 812.822 110.861 812.565 110.593C812.307 110.324 811.98 110.133 811.619 110.04L802.398 107.674C802.038 107.582 801.659 107.592 801.304 107.703C800.949 107.815 800.632 108.023 800.388 108.304L795.334 114.121M798.214 118.989L798.224 118.992M802.089 119.983L802.099 119.986" stroke="#E82BF2" stroke-width="2" stroke-linecap="round" stroke-linejoin="round"/>
</g>
<path d="M764.914 142.667V133.333C764.914 132.924 764.806 132.522 764.601 132.168C764.396 131.814 764.102 131.52 763.748 131.315L755.581 126.648C755.226 126.444 754.824 126.336 754.414 126.336C754.005 126.336 753.602 126.444 753.248 126.648L745.081 131.315C744.726 131.52 744.432 131.814 744.227 132.168C744.023 132.522 743.915 132.924 743.914 133.333V142.667C743.915 143.076 744.023 143.478 744.227 143.832C744.432 144.186 744.726 144.48 745.081 144.685L753.248 149.352C753.602 149.556 754.005 149.664 754.414 149.664C754.824 149.664 755.226 149.556 755.581 149.352L763.748 144.685C764.102 144.48 764.396 144.186 764.601 143.832C764.806 143.478 764.914 143.076 764.914 142.667Z" stroke="#E82BF2" stroke-width="2.33333" stroke-linecap="round" stroke-linejoin="round"/>
<g clip-path="url(#clip11_0_1)">
<path d="M509.128 182.998C508.316 184.503 507.092 185.744 505.6 186.579C504.108 187.413 502.409 187.805 500.703 187.709C498.996 187.613 497.352 187.033 495.963 186.037C494.573 185.041 493.497 183.669 492.859 182.083C492.22 180.498 492.047 178.763 492.359 177.082C492.671 175.401 493.455 173.844 494.619 172.592C495.784 171.341 497.281 170.447 498.935 170.015C500.589 169.583 502.331 169.632 503.959 170.154C502.514 171.004 501.421 172.344 500.881 173.931C500.34 175.518 500.387 177.247 501.013 178.802C501.639 180.357 502.802 181.636 504.291 182.406C505.781 183.177 507.497 183.387 509.128 182.998Z" stroke="#E82BF2" stroke-width="2" stroke-linecap="round" stroke-linejoin="round"/>
</g>
<g clip-path="url(#clip12_0_1)">
<path d="M857.119 174.853L857.128 174.85M861.267 186.113L861.277 186.11M853.859 171.791L868.872 166.26C869.909 165.878 871.059 166.408 871.44 167.445L872.823 171.198C873.205 172.235 872.675 173.384 871.638 173.766L856.625 179.298C855.588 179.68 854.439 179.149 854.057 178.113L852.674 174.359C852.292 173.323 852.823 172.173 853.859 171.791ZM858.008 183.051L873.021 177.52C874.057 177.138 875.207 177.668 875.589 178.705L876.972 182.458C877.354 183.495 876.823 184.644 875.787 185.026L860.773 190.558C859.737 190.94 858.587 190.409 858.205 189.373L856.822 185.619C856.441 184.583 856.971 183.433 858.008 183.051Z" stroke="#E82BF2" stroke-width="2" stroke-linecap="round" stroke-linejoin="round"/>
</g>
<g clip-path="url(#clip13_0_1)">
<path d="M392.533 158.09C391.962 157.906 391.65 157.297 391.834 156.726L392.943 153.289C393.127 152.718 393.736 152.406 394.307 152.59C394.877 152.774 395.189 153.383 395.005 153.954L393.896 157.391C393.712 157.962 393.103 158.274 392.533 158.09Z" stroke="#E82BF2" stroke-width="1.44466" stroke-linecap="round" stroke-linejoin="round"/>
<path d="M396.657 159.42L395.626 159.088L395.959 158.057C396.143 157.486 396.752 157.174 397.323 157.358C397.893 157.542 398.205 158.151 398.021 158.722C397.837 159.292 397.228 159.604 396.657 159.42Z" stroke="#E82BF2" stroke-width="1.44466" stroke-linecap="round" stroke-linejoin="round"/>
<path d="M388.208 159.731C388.779 159.915 389.091 160.524 388.907 161.095L387.798 164.532C387.614 165.103 387.005 165.415 386.434 165.231C385.864 165.046 385.552 164.437 385.736 163.867L386.845 160.429C387.029 159.859 387.638 159.547 388.208 159.731Z" stroke="#E82BF2" stroke-width="1.44466" stroke-linecap="round" stroke-linejoin="round"/>
<path d="M384.084 158.4L385.115 158.733L384.782 159.764C384.598 160.335 383.989 160.647 383.418 160.463C382.848 160.279 382.536 159.67 382.72 159.099C382.904 158.528 383.513 158.216 384.084 158.4Z" stroke="#E82BF2" stroke-width="1.44466" stroke-linecap="round" stroke-linejoin="round"/>
<path d="M391.191 161.073C391.375 160.502 391.984 160.19 392.555 160.374L395.992 161.483C396.563 161.667 396.875 162.276 396.691 162.847C396.507 163.417 395.897 163.729 395.327 163.545L391.89 162.436C391.319 162.252 391.007 161.643 391.191 161.073Z" stroke="#E82BF2" stroke-width="1.44466" stroke-linecap="round" stroke-linejoin="round"/>
<path d="M391.224 164.499L390.193 164.166L389.86 165.197C389.676 165.768 389.988 166.377 390.559 166.561C391.13 166.745 391.739 166.433 391.923 165.862C392.107 165.292 391.795 164.683 391.224 164.499Z" stroke="#E82BF2" stroke-width="1.44466" stroke-linecap="round" stroke-linejoin="round"/>
<path d="M389.55 156.748C389.734 156.178 389.422 155.569 388.851 155.384L385.414 154.276C384.844 154.092 384.234 154.404 384.05 154.974C383.866 155.545 384.178 156.154 384.749 156.338L388.186 157.447C388.757 157.631 389.366 157.319 389.55 156.748Z" stroke="#E82BF2" stroke-width="1.44466" stroke-linecap="round" stroke-linejoin="round"/>
<path d="M389.517 153.322L390.548 153.655L390.88 152.624C391.064 152.053 390.752 151.444 390.182 151.26C389.611 151.076 389.002 151.388 388.818 151.958C388.634 152.529 388.946 153.138 389.517 153.322Z" stroke="#E82BF2" stroke-width="1.44466" stroke-linecap="round" stroke-linejoin="round"/>
</g>
<defs>
<filter id="filter0_f_0_1" x="137.632" y="53" width="792.919" height="260.248" filterUnits="userSpaceOnUse" color-interpolation-filters="sRGB">
<feFlood flood-opacity="0" result="BackgroundImageFix"/>
<feBlend mode="normal" in="SourceGraphic" in2="BackgroundImageFix" result="shape"/>
<feGaussianBlur stdDeviation="16" result="effect1_foregroundBlur_0_1"/>
</filter>
<clipPath id="clip0_0_1">
<rect width="24" height="24" fill="white" transform="translate(437.753 153.464) rotate(-22.3467)"/>
</clipPath>
<clipPath id="clip1_0_1">
<rect width="24" height="24" fill="white" transform="translate(862.613 79) rotate(67.6595)"/>
</clipPath>
<clipPath id="clip2_0_1">
<rect width="17" height="17" fill="white" transform="translate(718.414 99.7252) rotate(-16.1381)"/>
</clipPath>
<clipPath id="clip3_0_1">
<rect width="12" height="12" fill="white" transform="translate(258.157 80) rotate(34.1879)"/>
</clipPath>
<clipPath id="clip4_0_1">
<rect width="15.4767" height="15.4767" fill="white" transform="translate(453.219 94.9476) rotate(-19.2161)"/>
</clipPath>
<clipPath id="clip5_0_1">
<rect width="16" height="16" fill="white" transform="translate(686.036 85.9391) rotate(32.8654)"/>
</clipPath>
<clipPath id="clip6_0_1">
<rect width="24" height="24" fill="white" transform="translate(751.671 175.595) rotate(-15.3133)"/>
</clipPath>
<clipPath id="clip7_0_1">
<rect width="24" height="24" fill="white" transform="translate(271.188 143) rotate(32.1568)"/>
</clipPath>
<clipPath id="clip8_0_1">
<rect width="24" height="24" fill="white" transform="translate(545.228 95.6862) rotate(-11.7138)"/>
</clipPath>
<clipPath id="clip9_0_1">
<rect width="24" height="24" fill="white" transform="translate(347.699 74) rotate(22.76)"/>
</clipPath>
<clipPath id="clip10_0_1">
<rect width="24" height="24" fill="white" transform="translate(796.38 102) rotate(14.3924)"/>
</clipPath>
<clipPath id="clip11_0_1">
<rect width="24" height="24" fill="white" transform="translate(494.822 163) rotate(23.0785)"/>
</clipPath>
<clipPath id="clip12_0_1">
<rect width="24" height="24" fill="white" transform="translate(849.414 171.297) rotate(-20.2258)"/>
</clipPath>
<clipPath id="clip13_0_1">
<rect width="17.3359" height="17.3359" fill="white" transform="translate(384.782 148) rotate(17.8781)"/>
</clipPath>
</defs>
</svg>
